<!DOCTYPE svg PUBLIC "-//W3C//DTD SVG 1.1//EN" "http://www.w3.org/Graphics/SVG/1.1/DTD/svg11.dtd">
<!-- Uploaded to: SVG Repo, www.svgrepo.com, Transformed by: SVG Repo Mixer Tools -->
<svg fill="#000000" height="800px" width="800px" version="1.1" id="Layer_1" xmlns="http://www.w3.org/2000/svg" xmlns:xlink="http://www.w3.org/1999/xlink" viewBox="0 0 512.001 512.001" xml:space="preserve">
<g id="SVGRepo_bgCarrier" stroke-width="0"/>
<g id="SVGRepo_tracerCarrier" stroke-linecap="round" stroke-linejoin="round"/>
<g id="SVGRepo_iconCarrier"> <g> <g> <path d="M319.84,27.536c-3.983-3.983-10.441-3.983-14.424,0s-3.984,10.441,0,14.424c27.247,27.248,27.247,71.582,0,98.83 c-3.983,3.983-3.983,10.441,0,14.424c1.992,1.992,4.602,2.987,7.212,2.987c2.61,0,5.221-0.996,7.212-2.987 C355.04,120.013,355.04,62.737,319.84,27.536z"/> </g> </g> <g> <g> <path d="M206.586,140.79c-27.247-27.248-27.247-71.583,0-98.83c3.983-3.983,3.983-10.441,0-14.424s-10.441-3.983-14.424,0 c-35.201,35.201-35.201,92.477,0,127.678c1.992,1.992,4.602,2.987,7.212,2.987c2.61,0,5.221-0.996,7.212-2.987 C210.569,151.231,210.57,144.773,206.586,140.79z"/> </g> </g> <g> <g> <path d="M344.387,2.989c-3.983-3.983-10.441-3.983-14.425,0s-3.983,10.441,0,14.425c40.785,40.782,40.785,107.14,0.001,147.923 c-3.983,3.983-3.983,10.441,0,14.425c1.992,1.992,4.602,2.987,7.212,2.987c2.61,0,5.221-0.995,7.212-2.987 C393.123,131.025,393.123,51.725,344.387,2.989z"/> </g> </g> <g> <g> <path d="M182.038,17.412c3.983-3.983,3.983-10.441,0-14.425c-3.983-3.984-10.441-3.983-14.425,0 c-48.736,48.737-48.736,128.037,0,176.773c1.993,1.993,4.603,2.988,7.213,2.988s5.221-0.995,7.212-2.987 c3.983-3.983,3.983-10.441,0-14.425C141.255,124.554,141.255,58.195,182.038,17.412z"/> </g> </g> <g> <g> <path d="M432.77,458.078h-46.356L285.74,137.485c15.123-9.788,25.161-26.794,25.161-46.111c0-30.271-24.628-54.899-54.899-54.899 c-30.271,0-54.899,24.628-54.899,54.899c0,19.316,10.037,36.322,25.161,46.111L125.589,458.078H79.233 c-5.633,0-10.199,4.566-10.199,10.199v33.525c0,5.633,4.566,10.199,10.199,10.199h73.146c5.633,0,10.199-4.566,10.199-10.199 v-33.525c0-5.633-4.566-10.199-10.199-10.199h-5.41l29.749-94.735c0.103-0.058,0.21-0.101,0.311-0.163l78.972-48.642 l78.971,48.642c0.101,0.062,0.209,0.104,0.311,0.163l29.749,94.735h-5.41c-5.633,0-10.199,4.566-10.199,10.199v33.525 c0,5.633,4.566,10.199,10.199,10.199h73.146c5.633,0,10.199-4.566,10.199-10.199v-33.525 C442.969,462.644,438.403,458.078,432.77,458.078z M142.179,491.603H89.432v-13.126h52.747V491.603z M221.5,91.375 c0-19.024,15.477-34.501,34.501-34.501s34.501,15.477,34.501,34.501s-15.477,34.501-34.501,34.501S221.5,110.398,221.5,91.375z M186.035,333.675l16.375-52.146l34.143,21.03L186.035,333.675z M256.001,195.974c-5.633,0-10.199,4.566-10.199,10.199v78.125 l-37.087-22.844l36.505-116.248c3.487,0.698,7.091,1.069,10.782,1.069s7.294-0.372,10.783-1.069l36.505,116.248L266.2,284.298 v-78.125C266.2,200.54,261.634,195.974,256.001,195.974z M275.449,302.558l34.143-21.03l16.375,52.146L275.449,302.558z M422.57,491.603h-52.747v-13.126h52.747V491.603z"/> </g> </g> <g> <g> <path d="M256.001,163.465c-5.633,0-10.199,4.566-10.199,10.199v3.048c0,5.633,4.566,10.199,10.199,10.199 c5.633,0,10.199-4.566,10.199-10.199v-3.048C266.2,168.031,261.634,163.465,256.001,163.465z"/> </g> </g> </g>
</svg>